:FULLY-SPECIFIED
:FORCE-ALL-JOINTS-BE-3DOF
:DEGREES
1
root 6.24314 16.836 -28.1378 9.0217 -2.52979 -3.05774
lfemur -20.3712 2.30257 -19.9954
ltibia 35.927 0 0
lfoot -38.654 3.93715 0
ltoes 38.9541 0 0
rfemur -19.4747 0.22019 19.5256
rtibia 36.0342 0 0
rfoot -30.3779 -10.4967 0
rtoes 21.4483 0 0
lowerback -2.05144 3.66971 -5.03766
upperback -2.66728 5.00355 3.49279
thorax -2.36397 2.67023 6.42441
lowerneck -9.84699 -2.36864 1.94815
upperneck -1.37933 -3.32542 -1.65382
head 1.16433 -1.69823 -0.975663
lclavicle -1.65488e-14 -3.69739e-14 0
lhumerus -41.7253 -10.8128 99.8312
lradius 34.5094 0 0
lwrist 2.17521 0 0
lhand -10.5949 9.65639 0
lfingers 7.12502 0 0
lthumb 15.4107 39.062 0
rclavicle -1.65488e-14 -3.69739e-14 0
rhumerus -43.273 -4.86223 -84.2703
rradius 40.4763 0 0
rwrist 9.89469 0 0
rhand -23.7965 -22.476 0
rfingers 7.12502 0 0
rthumb 2.67393 -52.439 0
2
root 6.242 16.8364 -28.1374 9.02604 -2.52646 -3.05453
lfemur -20.3686 2.29893 -19.994
ltibia 35.9158 0 0
lfoot -38.6418 3.93856 0
ltoes 38.9458 0 0
rfemur -19.4587 0.257672 19.526
rtibia 36.0034 0 0
rfoot -30.3629 -10.5407 0
rtoes 21.4201 0 0
lowerback -2.06814 3.66382 -5.01917
upperback -2.66368 4.9955 3.48158
thorax -2.3476 2.66529 6.40354
lowerneck -9.84607 -2.36512 1.95039
upperneck -1.3855 -3.32111 -1.64426
head 1.16235 -1.69593 -0.972793
lclavicle -1.59729e-14 -3.66282e-14 0
lhumerus -41.725 -10.8179 99.8157
lradius 34.5204 0 0
lwrist 2.18664 0 0
lhand -10.5986 9.62762 0
lfingers 7.12502 0 0
lthumb 15.4071 39.0335 0
rclavicle -1.59729e-14 -3.66282e-14 0
rhumerus -43.2603 -4.86334 -84.2903
rradius 40.472 0 0
rwrist 9.89941 0 0
rhand -23.8172 -22.4592 0
rfingers 7.12502 0 0
rthumb 2.65396 -52.4223 0
3
root 6.23873 16.8375 -28.1361 9.0385 -2.51691 -3.04532
lfemur -20.3613 2.28849 -19.99
ltibia 35.8836 0 0
lfoot -38.6066 3.94259 0
ltoes 38.9218 0 0
rfemur -19.4126 0.365203 19.5271
rtibia 35.915 0 0
rfoot -30.3197 -10.6671 0
rtoes 21.3391 0 0
lowerback -2.11607 3.64692 -4.96611
upperback -2.65335 4.9724 3.44942
thorax -2.30065 2.65112 6.34366
lowerneck -9.84345 -2.35504 1.9568
upperneck -1.40319 -3.30874 -1.61682
head 1.15667 -1.68933 -0.96456
lclavicle -1.43209e-14 -3.56366e-14 0
lhumerus -41.724 -10.8326 99.7713
lradius 34.552 0 0
lwrist 2.21943 0 0
lhand -10.6093 9.54509 0
lfingers 7.12502 0 0
lthumb 15.3969 38.9517 0
rclavicle -1.43209e-14 -3.56366e-14 0
rhumerus -43.2239 -4.86651 -84.3479
rradius 40.4598 0 0
rwrist 9.91294 0 0
rhand -23.8765 -22.411 0
rfingers 7.12502 0 0
rthumb 2.59666 -52.3745 0
4
root 6.23356 16.8392 -28.1341 9.05821 -2.50179 -3.03074
lfemur -20.3497 2.27197 -19.9837
ltibia 35.8326 0 0
lfoot -38.551 3.94898 0
ltoes 38.8839 0 0
rfemur -19.3397 0.535409 19.5288
rtibia 35.7751 0 0
rfoot -30.2514 -10.8671 0
rtoes 21.211 0 0
lowerback -2.19193 3.62017 -4.88213
upperback -2.63699 4.93584 3.39852
thorax -2.22633 2.62869 6.24887
lowerneck -9.83929 -2.33907 1.96696
upperneck -1.4312 -3.28916 -1.57339
head 1.14769 -1.67888 -0.951528
lclavicle -1.17058e-14 -3.40669e-14 0
lhumerus -41.7224 -10.8558 99.7009
lradius 34.6019 0 0
lwrist 2.27133 0 0
lhand -10.6261 9.41446 0
lfingers 7.12502 0 0
lthumb 15.3806 38.8223 0
rclavicle -1.17058e-14 -3.40669e-14 0
rhumerus -43.1662 -4.87153 -84.4389
rradius 40.4403 0 0
rwrist 9.93436 0 0
rhand -23.9704 -22.3348 0
rfingers 7.12502 0 0
rthumb 2.50596 -52.2987 0
5
root 6.22671 16.8415 -28.1315 9.08433 -2.48175 -3.01143
lfemur -20.3343 2.25007 -19.9752
ltibia 35.7651 0 0
lfoot -38.4774 3.95744 0
ltoes 38.8337 0 0
rfemur -19.2432 0.760916 19.5311
rtibia 35.5897 0 0
rfoot -30.1609 -11.1321 0
rtoes 21.0413 0 0
lowerback -2.29243 3.58472 -4.77087
upperback -2.61532 4.88741 3.33108
thorax -2.12786 2.59897 6.12329
lowerneck -9.83379 -2.31792 1.98042
upperneck -1.4683 -3.26321 -1.51585
head 1.13578 -1.66503 -0.934262
lclavicle -8.2412e-15 -3.19872e-14 0
lhumerus -41.7203 -10.8866 99.6077
lradius 34.6681 0 0
lwrist 2.34009 0 0
lhand -10.6484 9.24138 0
lfingers 7.12502 0 0
lthumb 15.3591 38.6509 0
rclavicle -8.2412e-15 -3.19872e-14 0
rhumerus -43.0897 -4.87818 -84.5595
rradius 40.4146 0 0
rwrist 9.96275 0 0
rhand -24.0948 -22.2338 0
rfingers 7.12502 0 0
rthumb 2.38579 -52.1983 0
6
root 6.2184 16.8443 -28.1282 9.116 -2.45746 -2.98801
lfemur -20.3157 2.22352 -19.9651
ltibia 35.6833 0 0
lfoot -38.388 3.96769 0
ltoes 38.7729 0 0
rfemur -19.1261 1.03435 19.534
rtibia 35.3649 0 0
rfoot -30.0512 -11.4534 0
rtoes 20.8354 0 0
lowerback -2.41429 3.54174 -4.63596
upperback -2.58905 4.82867 3.24931
thorax -2.00847 2.56294 5.97102
lowerneck -9.82711 -2.29227 1.99674
upperneck -1.5133 -3.23176 -1.44608
head 1.12135 -1.64824 -0.913326
lclavicle -4.0402e-15 -2.94656e-14 0
lhumerus -41.7177 -10.9239 99.4947
lradius 34.7484 0 0
lwrist 2.42347 0 0
lhand -10.6755 9.03152 0
lfingers 7.12502 0 0
lthumb 15.333 38.443 0
rclavicle -4.0402e-15 -2.94656e-14 0
rhumerus -42.9971 -4.88624 -84.7057
rradius 40.3834 0 0
rwrist 9.99716 0 0
rhand -24.2457 -22.1113 0
rfingers 7.12502 0 0
rthumb 2.24008 -52.0766 0
7
root 6.20885 16.8474 -28.1246 9.15236 -2.42956 -2.96111
lfemur -20.2943 2.19304 -19.9534
ltibia 35.5893 0 0
lfoot -38.2855 3.97947 0
ltoes 38.703 0 0
rfemur -18.9916 1.34834 19.5372
rtibia 35.1068 0 0
rfoot -29.9252 -11.8224 0
rtoes 20.5991 0 0
lowerback -2.55423 3.49239 -4.48103
upperback -2.55888 4.76123 3.1554
thorax -1.87136 2.52156 5.79617
lowerneck -9.81945 -2.26281 2.01548
upperneck -1.56496 -3.19564 -1.36597
head 1.10477 -1.62897 -0.889286
lclavicle 7.83865e-16 -2.65699e-14 0
lhumerus -41.7148 -10.9668 99.3649
lradius 34.8406 0 0
lwrist 2.51921 0 0
lhand -10.7066 8.79053 0
lfingers 7.12502 0 0
lthumb 15.3031 38.2042 0
rclavicle 7.83865e-16 -2.65699e-14 0
rhumerus -42.8907 -4.8955 -84.8737
rradius 40.3476 0 0
rwrist 10.0367 0 0
rhand -24.4189 -21.9706 0
rfingers 7.12502 0 0
rthumb 2.07276 -51.9369 0
8
root 6.1983 16.851 -28.1205 9.19257 -2.39872 -2.93138
lfemur -20.2706 2.15933 -19.9404
ltibia 35.4854 0 0
lfoot -38.172 3.9925 0
ltoes 38.6257 0 0
rfemur -18.843 1.69551 19.5407
rtibia 34.8215 0 0
rfoot -29.7859 -12.2303 0
rtoes 20.3377 0 0
lowerback -2.70896 3.43783 -4.30974
upperback -2.52552 4.68666 3.05158
thorax -1.71977 2.47581 5.60284
lowerneck -9.81097 -2.23025 2.0362
upperneck -1.62209 -3.1557 -1.27738
head 1.08644 -1.60765 -0.862705
lclavicle 6.11772e-15 -2.33682e-14 0
lhumerus -41.7116 -11.0142 99.2214
lradius 34.9425 0 0
lwrist 2.62507 0 0
lhand -10.741 8.52408 0
lfingers 7.12502 0 0
lthumb 15.27 37.9403 0
rclavicle 6.11772e-15 -2.33682e-14 0
rhumerus -42.773 -4.90574 -85.0594
rradius 40.308 0 0
rwrist 10.0804 0 0
rhand -24.6105 -21.8151 0
rfingers 7.12502 0 0
rthumb 1.88776 -51.7824 0
9
root 6.18697 16.8547 -28.1161 9.23577 -2.36558 -2.89943
lfemur -20.2452 2.12312 -19.9265
ltibia 35.3737 0 0
lfoot -38.0502 4.00649 0
ltoes 38.5426 0 0
rfemur -18.6833 2.06849 19.5446
rtibia 34.5149 0 0
rfoot -29.6362 -12.6686 0
rtoes 20.057 0 0
lowerback -2.87519 3.3792 -4.12571
upperback -2.48968 4.60655 2.94004
thorax -1.55691 2.42666 5.39514
lowerneck -9.80187 -2.19526 2.05846
upperneck -1.68346 -3.11279 -1.18221
head 1.06675 -1.58475 -0.834147
lclavicle 1.18481e-14 -1.99285e-14 0
lhumerus -41.7082 -11.0651 99.0672
lradius 35.052 0 0
lwrist 2.7388 0 0
lhand -10.7779 8.23782 0
lfingers 7.12502 0 0
lthumb 15.2344 37.6567 0
rclavicle 1.18481e-14 -1.99285e-14 0
rhumerus -42.6466 -4.91674 -85.2588
rradius 40.2654 0 0
rwrist 10.1273 0 0
rhand -24.8163 -21.648 0
rfingers 7.12502 0 0
rthumb 1.68901 -51.6164 0
10
root 6.17507 16.8587 -28.1115 9.2811 -2.33081 -2.86591
lfemur -20.2185 2.08512 -19.9119
ltibia 35.2565 0 0
lfoot -37.9223 4.02118 0
ltoes 38.4555 0 0
rfemur -18.5156 2.4599 19.5486
rtibia 34.1931 0 0
rfoot -29.4792 -13.1285 0
rtoes 19.7623 0 0
lowerback -3.04963 3.31768 -3.93259
upperback -2.45207 4.52247 2.82298
thorax -1.386 2.37508 5.17717
lowerneck -9.79231 -2.15854 2.08182
upperneck -1.74787 -3.06776 -1.08234
head 1.04609 -1.56072 -0.804179
lclavicle 1.78616e-14 -1.63189e-14 0
lhumerus -41.7045 -11.1185 98.9054
lradius 35.1669 0 0
lwrist 2.85816 0 0
lhand -10.8167 7.93741 0
lfingers 7.12502 0 0
lthumb 15.1971 37.3591 0
rclavicle 1.78616e-14 -1.63189e-14 0
rhumerus -42.514 -4.92828 -85.4682
rradius 40.2207 0 0
rwrist 10.1766 0 0
rhand -25.0322 -21.4727 0
rfingers 7.12502 0 0
rthumb 1.48044 -51.4422 0
11
root 6.16284 16.8628 -28.1068 9.32772 -2.29505 -2.83144
lfemur -20.1911 2.04604 -19.8969
ltibia 35.136 0 0
lfoot -37.7908 4.03628 0
ltoes 38.3659 0 0
rfemur -18.3433 2.86238 19.5527
rtibia 33.8623 0 0
rfoot -29.3177 -13.6015 0
rtoes 19.4594 0 0
lowerback -3.229 3.25442 -3.73401
upperback -2.41339 4.43603 2.70262
thorax -1.21026 2.32204 4.95304
lowerneck -9.78249 -2.12079 2.10584
upperneck -1.81409 -3.02146 -0.97965
head 1.02484 -1.53601 -0.773363
lclavicle 2.40451e-14 -1.26072e-14 0
lhumerus -41.7008 -11.1734 98.739
lradius 35.2851 0 0
lwrist 2.98088 0 0
lhand -10.8565 7.62851 0
lfingers 7.12502 0 0
lthumb 15.1587 37.0531 0
rclavicle 2.40451e-14 -1.26072e-14 0
rhumerus -42.3776 -4.94015 -85.6834
rradius 40.1748 0 0
rwrist 10.2272 0 0
rhand -25.2543 -21.2924 0
rfingers 7.12502 0 0
rthumb 1.26597 -51.263 0
